<svg width="32" height="32" viewBox="0 0 32 32" fill="none" xmlns="http://www.w3.org/2000/svg">
<path fill-rule="evenodd" clip-rule="evenodd" d="M0 0.8C0 0.358172 0.358172 0 0.8 0H31.2C31.6418 0 32 0.358172 32 0.8V31.2C32 31.6418 31.6418 32 31.2 32H0.8C0.358172 32 0 31.6418 0 31.2V0.8ZM1.6 7.92442V30.4H30.4V7.92442H1.6ZM30.4 6.32442H1.6V1.6H30.4V6.32442ZM3.68 11.9851C3.68 11.5433 4.03817 11.1851 4.48 11.1851H8.96C9.40183 11.1851 9.76 11.5433 9.76 11.9851V16.4651C9.76 16.9069 9.40183 17.2651 8.96 17.2651H4.48C4.03817 17.2651 3.68 16.9069 3.68 16.4651V11.9851ZM5.28 12.7851V15.6651H8.16V12.7851H5.28ZM12.96 11.9851C12.96 11.5433 13.3182 11.1851 13.76 11.1851H18.24C18.6818 11.1851 19.04 11.5433 19.04 11.9851V16.4651C19.04 16.9069 18.6818 17.2651 18.24 17.2651H13.76C13.3182 17.2651 12.96 16.9069 12.96 16.4651V11.9851ZM14.56 12.7851V15.6651H17.44V12.7851H14.56ZM22.24 11.9851C22.24 11.5433 22.5982 11.1851 23.04 11.1851H27.52C27.9618 11.1851 28.32 11.5433 28.32 11.9851V16.4651C28.32 16.9069 27.9618 17.2651 27.52 17.2651H23.04C22.5982 17.2651 22.24 16.9069 22.24 16.4651V11.9851ZM23.84 12.7851V15.6651H26.72V12.7851H23.84ZM3.68 21.8594C3.68 21.4175 4.03817 21.0594 4.48 21.0594H8.96C9.40183 21.0594 9.76 21.4175 9.76 21.8594V26.3394C9.76 26.7812 9.40183 27.1394 8.96 27.1394H4.48C4.03817 27.1394 3.68 26.7812 3.68 26.3394V21.8594ZM5.28 22.6594V25.5394H8.16V22.6594H5.28ZM12.96 21.8594C12.96 21.4175 13.3182 21.0594 13.76 21.0594H18.24C18.6818 21.0594 19.04 21.4175 19.04 21.8594V26.3394C19.04 26.7812 18.6818 27.1394 18.24 27.1394H13.76C13.3182 27.1394 12.96 26.7812 12.96 26.3394V21.8594ZM14.56 22.6594V25.5394H17.44V22.6594H14.56ZM22.24 21.8594C22.24 21.4175 22.5982 21.0594 23.04 21.0594H27.52C27.9618 21.0594 28.32 21.4175 28.32 21.8594V26.3394C28.32 26.7812 27.9618 27.1394 27.52 27.1394H23.04C22.5982 27.1394 22.24 26.7812 22.24 26.3394V21.8594ZM23.84 22.6594V25.5394H26.72V22.6594H23.84Z" fill="black"/>
</svg>
