<svg width="50" height="50" viewBox="0 0 50 50" fill="none" xmlns="http://www.w3.org/2000/svg">
<path d="M23.8632 29.5454C24.4904 29.5454 24.9995 29.0363 24.9995 28.4091C24.9995 27.1545 26.0177 26.1363 27.2723 26.1363C27.8995 26.1363 28.4086 25.6273 28.4086 25C28.4086 24.3727 27.8995 23.8636 27.2723 23.8636C24.7609 23.8636 22.7268 25.8977 22.7268 28.4091C22.7268 29.0363 23.2359 29.5454 23.8632 29.5454Z" fill="#192045"/>
<path d="M48.8636 11.3636H38.6364V5.68182C38.6318 5.38182 38.5091 5.09545 38.2955 4.88636L33.75 0.340909C33.5409 0.127273 33.2545 0.00454545 32.9545 0H21.5909C20.9636 0 20.4545 0.509091 20.4545 1.13636V5.68182C20.4545 6.30909 20.9636 6.81818 21.5909 6.81818H31.8182V11.3636H18.1818V1.13636C18.1727 0.509091 17.6568 0.00681811 17.0295 0.015909C16.7386 0.0204545 16.4591 0.136364 16.25 0.340909L11.7045 4.88636C11.4909 5.09545 11.3682 5.38182 11.3636 5.68182V11.3636H1.13636C0.509091 11.3636 0 11.8727 0 12.5V45.4545C0 47.9659 2.03409 50 4.54545 50H45.4545C47.9659 50 50 47.9659 50 45.4545V12.5C50 11.8727 49.4909 11.3636 48.8636 11.3636ZM23.8636 18.1818C26.5205 18.2 28.925 19.7614 30.0227 22.1818C33.4205 23.8045 34.8591 27.875 33.2364 31.2727C31.6136 34.6705 27.5432 36.1091 24.1455 34.4864C22.7386 33.8136 21.6045 32.6795 20.9318 31.2727C17.4636 29.8045 15.8432 25.8023 17.3136 22.3341C18.4205 19.7227 21.0295 18.0682 23.8636 18.1818ZM23.5 42.8864C23.2205 43.1477 22.8273 43.25 22.4545 43.1591C19.6477 42.4614 16.7159 42.4614 13.9091 43.1591L13.6364 43.1818C13.0091 43.175 12.5045 42.6614 12.5114 42.0341C12.5114 41.9455 12.5227 41.8591 12.5455 41.7727L12.7273 41.0909C13.3114 38.7409 13.3114 36.2818 12.7273 33.9318L12.5455 33.25C12.3818 32.6432 12.7409 32.0205 13.3477 31.8568C13.4409 31.8318 13.5386 31.8182 13.6364 31.8182C14.5205 31.8159 15.3932 31.6045 16.1818 31.2045C16.6136 30.9909 17.1318 31.0727 17.4773 31.4091C17.9773 31.9114 18.5341 32.3545 19.1364 32.7273C19.2955 32.8227 19.4273 32.9545 19.5227 33.1136C20.3591 34.4727 21.5341 35.5932 22.9318 36.3636C23.3341 36.5909 23.5591 37.0409 23.5 37.5C23.3909 38.2545 23.3909 39.0182 23.5 39.7727L23.8409 41.8409C23.9136 42.225 23.7864 42.6205 23.5 42.8864ZM37.3182 35.8636L36.9318 36.4318C35.8182 38.0932 35.225 40.0455 35.2273 42.0455C35.2341 42.6727 34.7318 43.1886 34.1045 43.1955C33.8727 43.1977 33.6477 43.1295 33.4545 43L32.8864 42.6136C31.225 41.5 29.2727 40.9068 27.2727 40.9091C26.6455 40.9136 26.1341 40.4068 26.1295 39.7795C26.1295 39.6614 26.1455 39.5432 26.1818 39.4318C26.275 39.1114 26.3432 38.7841 26.3864 38.4545C26.4727 37.9159 26.9318 37.5159 27.4773 37.5C30.1477 37.4068 32.6409 36.1432 34.2955 34.0455C34.6386 33.6114 35.2409 33.4886 35.7273 33.75C36.0159 33.9205 36.3205 34.0659 36.6364 34.1818C37.2318 34.3795 37.5545 35.0227 37.3568 35.6182C37.325 35.7136 37.2818 35.8023 37.2273 35.8864L37.3182 35.8636Z" fill="#FF8A8A"/>
</svg>
