<svg width="44" height="44" viewBox="0 0 44 44" fill="none" xmlns="http://www.w3.org/2000/svg">
<rect x="0.5" y="0.5" width="43" height="43" rx="5.5" stroke="#192045"/>
<path d="M33.3002 17.45H21.1502C19.659 17.45 18.4502 18.6588 18.4502 20.15V32.3C18.4502 33.7912 19.659 35 21.1502 35H33.3002C34.7914 35 36.0002 33.7912 36.0002 32.3V20.15C36.0002 18.6588 34.7914 17.45 33.3002 17.45Z" stroke="#192045" stroke-width="2" stroke-linecap="round" stroke-linejoin="round"/>
<path d="M13.05 25.55H11.7C10.9839 25.55 10.2972 25.2655 9.79081 24.7592C9.28446 24.2528 9 23.5661 9 22.85V10.7C9 9.98392 9.28446 9.29716 9.79081 8.79081C10.2972 8.28446 10.9839 8 11.7 8H23.85C24.5661 8 25.2528 8.28446 25.7592 8.79081C26.2655 9.29716 26.55 9.98392 26.55 10.7V12.05" stroke="#192045" stroke-width="2" stroke-linecap="round" stroke-linejoin="round"/>
</svg>
