<svg width="44" height="44" viewBox="0 0 44 44" fill="none" xmlns="http://www.w3.org/2000/svg">
<rect x="0.5" y="0.5" width="43" height="43" rx="5.5" stroke="#192045"/>
<path fill-rule="evenodd" clip-rule="evenodd" d="M36 14.7144V33.1114C36 34.1386 35.5936 35.1238 34.8703 35.8501C34.1469 36.5765 33.1658 36.9845 32.1429 36.9845H30.2143V35.048H32.1429C32.6543 35.048 33.1449 34.8439 33.5066 34.4808C33.8682 34.1176 34.0714 33.625 34.0714 33.1114V14.7144H30.2143C29.4471 14.7144 28.7112 14.4084 28.1687 13.8636C27.6262 13.3188 27.3214 12.58 27.3214 11.8096V7.93653H16.7143C16.2028 7.93653 15.7123 8.14056 15.3506 8.50373C14.9889 8.8669 14.7857 9.35946 14.7857 9.87306V27.3018H12.8571V9.87306C12.8571 8.84586 13.2635 7.86073 13.9869 7.13439C14.7102 6.40805 15.6913 6 16.7143 6H27.3214L36 14.7144ZM15.7828 34.7401C15.7938 35.0452 15.8683 35.3446 16.0015 35.6191C16.1347 35.8936 16.3236 36.1371 16.5561 36.3338C16.8069 36.543 17.1135 36.7056 17.478 36.8218C17.8444 36.94 18.2706 36.9981 18.7605 36.9981C19.4124 36.9981 19.9639 36.8954 20.4171 36.6921C20.8723 36.4888 21.2194 36.2041 21.4566 35.84C21.6977 35.474 21.8173 35.0499 21.8173 34.5697C21.8173 34.1359 21.7305 33.7757 21.5589 33.4852C21.3823 33.195 21.1329 32.9566 20.8356 32.7939C20.494 32.6043 20.1261 32.4673 19.7441 32.3872L18.5464 32.1083C18.2641 32.0562 17.9975 31.9396 17.7673 31.7675C17.6793 31.6994 17.6084 31.6115 17.5602 31.511C17.5119 31.4105 17.4878 31.3 17.4896 31.1885C17.4896 30.8864 17.6091 30.6385 17.8464 30.4448C18.0874 30.2493 18.4172 30.1505 18.8338 30.1505C19.1096 30.1505 19.3468 30.195 19.5474 30.2822C19.732 30.3577 19.895 30.4782 20.0218 30.6327C20.1405 30.7764 20.2202 30.9485 20.2532 31.1323H21.6996C21.6756 30.7379 21.5419 30.3582 21.3139 30.0362C21.0702 29.6886 20.7368 29.4142 20.3496 29.2423C19.8761 29.0336 19.3623 28.9331 18.8454 28.9479C18.2803 28.9479 17.7827 29.0447 17.3488 29.2384C16.9149 29.4301 16.5774 29.7031 16.3324 30.0537C16.0875 30.4061 15.966 30.8186 15.966 31.2911C15.966 31.6803 16.0431 32.0192 16.2013 32.3058C16.3594 32.5944 16.587 32.8287 16.8801 33.0166C17.1733 33.2005 17.5204 33.34 17.9196 33.429L19.1115 33.7079C19.5107 33.8028 19.8077 33.9267 20.0044 34.0816C20.1005 34.1552 20.1774 34.2511 20.2285 34.361C20.2795 34.471 20.3033 34.5918 20.2976 34.713C20.3013 34.9126 20.2441 35.1085 20.1336 35.2745C20.0095 35.4446 19.8385 35.5745 19.6419 35.6483C19.4278 35.7393 19.1616 35.7839 18.8454 35.7839C18.6197 35.7839 18.4153 35.7587 18.2282 35.7064C18.0577 35.659 17.8961 35.5837 17.7499 35.4837C17.6215 35.4003 17.5116 35.2912 17.427 35.1632C17.3424 35.0353 17.2849 34.8913 17.2581 34.7401H15.7828ZM10.5544 32.5169C10.5544 32.0367 10.62 31.6261 10.7511 31.2911C10.8655 30.9817 11.0681 30.713 11.3336 30.5184C11.6042 30.3368 11.9243 30.2441 12.2496 30.2531C12.5389 30.2531 12.7954 30.3151 13.0172 30.441C13.2346 30.5576 13.416 30.7317 13.5418 30.9445C13.6762 31.1685 13.7555 31.4214 13.7732 31.6823H15.2486V31.5429C15.2358 31.1861 15.1493 30.836 14.9946 30.5146C14.8399 30.1933 14.6203 29.9077 14.3499 29.676C14.0728 29.4403 13.7524 29.2613 13.4068 29.1493C13.0305 29.0214 12.6354 28.9579 12.2381 28.9615C11.5515 28.9615 10.9652 29.1048 10.4811 29.3933C9.999 29.6799 9.63257 30.0885 9.378 30.6172C9.12729 31.1478 9 31.7791 9 32.5131V33.4774C9 34.2114 9.12343 34.8408 9.37221 35.3675C9.62486 35.8923 9.99321 36.297 10.4754 36.5798C10.9575 36.8606 11.5438 37 12.2381 37C12.8031 37 13.3065 36.8935 13.752 36.6824C14.1956 36.4694 14.5504 36.1789 14.8127 35.8032C15.0788 35.4187 15.23 34.9659 15.2486 34.498V34.3508H13.7751C13.757 34.6002 13.6789 34.8414 13.5476 35.0538C13.419 35.2594 13.2379 35.4266 13.023 35.5379C12.7822 35.6549 12.5171 35.7127 12.2496 35.7064C11.9238 35.7157 11.6027 35.6266 11.3278 35.4508C11.0637 35.262 10.8627 34.9973 10.7511 34.6917C10.6101 34.3029 10.5434 33.891 10.5544 33.4774V32.5189V32.5169ZM26.4439 36.8509H24.606L22.0256 29.1067H23.7941L25.5221 35.1835H25.5954L27.3079 29.1067H29.0031L26.4439 36.8528V36.8509Z" fill="#192045"/>
</svg>
