<svg width="47" height="50" viewBox="0 0 47 50" fill="none" xmlns="http://www.w3.org/2000/svg">
<path d="M23.3329 22.5C19.9991 22.5 16.8212 22.9999 13.9507 24.2499C15.6438 27.4999 19.2002 30 23.3329 30C27.4656 30 31.0213 27.4999 32.7156 24.2499C29.8439 22.9999 26.6667 22.5 23.3329 22.5Z" fill="#FFD5D5"/>
<path d="M13.9505 26.7499C6.41724 29.9999 0.954453 36.75 0 45C0 47.75 2.17441 50 5.05813 50H41.6072C44.492 50 46.6667 47.75 46.6667 45C45.7112 36.75 40.2471 29.9999 32.7154 26.7499C31.021 29.9999 27.4653 32.5 23.3327 32.5C19.2 32.5 15.6435 29.9999 13.9505 26.7499Z" fill="#192045"/>
<path d="M13.9505 24.2499C6.41724 27.4999 0.954453 34.25 0 42.5C0 45.25 2.17441 47.5 5.05813 47.5H41.6072C44.492 47.5 46.6667 45.25 46.6667 42.5C45.7112 34.25 40.2471 27.4999 32.7154 24.2499C31.021 27.4999 27.4653 30 23.3327 30C19.2 30 15.6435 27.4999 13.9505 24.2499Z" fill="#FF8A8A"/>
<path d="M23.3327 22.5C20.3383 22.5 17.4817 23.08 14.8481 24.0625C17.3034 25.6025 20.1921 26.5625 23.3327 26.5625C26.4811 26.5625 29.3581 25.61 31.8173 24.0625C29.1832 23.08 26.3271 22.5 23.3327 22.5Z" fill="#FFD4D4"/>
<path d="M36.3864 12.5C36.3864 15.8152 35.0112 18.9946 32.5632 21.3388C30.1153 23.683 26.7951 25 23.3332 25C19.8712 25 16.5511 23.683 14.1031 21.3388C11.6552 18.9946 10.2799 15.8152 10.2799 12.5C10.2799 9.18479 11.6552 6.00537 14.1031 3.66117C16.5511 1.31696 19.8712 0 23.3332 0C26.7951 0 30.1153 1.31696 32.5632 3.66117C35.0112 6.00537 36.3864 9.18479 36.3864 12.5Z" fill="#FFA5A5"/>
<path d="M13.9511 24.2499C13.123 24.7499 12.3601 24.9999 11.5853 25.4999C13.7138 29.4999 18.219 32.5 23.3332 32.5C28.4475 32.5 32.9535 29.4999 35.0811 25.4999C34.3058 24.9999 33.5435 24.7499 32.7159 24.2499C31.0216 27.4999 27.4659 30 23.3332 30C19.2006 30 15.6441 27.4999 13.9511 24.2499Z" fill="#192045"/>
</svg>
