<svg width="44" height="44" viewBox="0 0 44 44" fill="none" xmlns="http://www.w3.org/2000/svg">
<rect x="0.5" y="0.5" width="43" height="43" rx="5.5" stroke="#192045"/>
<path d="M31.311 37.6837H12.689C11.4457 37.6821 10.2539 37.1874 9.37488 36.3082C8.49586 35.429 8.00142 34.2371 8 32.9938V10.689C8.00165 9.44591 8.4962 8.25421 9.3752 7.37521C10.2542 6.49621 11.4459 6.00166 12.689 6.00001H24.5811C25.1989 5.99879 25.8107 6.11998 26.3814 6.35658C26.9521 6.59318 27.4702 6.94051 27.9059 7.37849L34.6206 14.087C35.5011 14.9717 35.9968 16.1681 36 17.4162V32.9938C35.9986 34.2371 35.5041 35.429 34.6251 36.3082C33.7461 37.1874 32.5543 37.6821 31.311 37.6837ZM12.689 8.23201C12.0376 8.23272 11.413 8.49181 10.9524 8.95243C10.4918 9.41305 10.2327 10.0376 10.232 10.689V32.9938C10.2327 33.6453 10.4918 34.27 10.9524 34.7307C11.413 35.1915 12.0375 35.4508 12.689 35.4517H31.311C31.9625 35.4508 32.587 35.1915 33.0476 34.7307C33.5082 34.27 33.7673 33.6453 33.768 32.9938V17.4136C33.7664 16.7578 33.5059 16.1292 33.043 15.6646L26.3274 8.95518C26.0986 8.7252 25.8264 8.54287 25.5267 8.41874C25.2269 8.29461 24.9055 8.23114 24.5811 8.23201H12.689Z" fill="#192045"/>
<path d="M33.8932 17.1279H29.7363C28.4971 17.1267 27.309 16.6339 26.4327 15.7576C25.5565 14.8814 25.0637 13.6933 25.0625 12.4541V7.11958H27.2945V12.4541C27.2952 13.1014 27.5527 13.7221 28.0105 14.1799C28.4682 14.6377 29.0889 14.8952 29.7363 14.8959H33.8932V17.1279Z" fill="#192045"/>
<path d="M30.0858 31.4564H13.9136V16.7431H30.0858V31.4564ZM16.1456 29.2244H27.8538V18.9751H16.1456V29.2244Z" fill="#192045"/>
<path d="M28.6242 25.2157H15.4643C15.1792 25.1996 14.9111 25.075 14.715 24.8675C14.5189 24.66 14.4097 24.3853 14.4097 24.0997C14.4097 23.8142 14.5189 23.5395 14.715 23.332C14.9111 23.1245 15.1792 22.9999 15.4643 22.9837H28.6242C28.9092 22.9999 29.1773 23.1245 29.3734 23.332C29.5695 23.5395 29.6788 23.8142 29.6788 24.0997C29.6788 24.3853 29.5695 24.66 29.3734 24.8675C29.1773 25.075 28.9092 25.1996 28.6242 25.2157Z" fill="#192045"/>
<path d="M20.2146 31.2511C19.8916 31.2209 19.5934 31.0648 19.3846 30.8165C19.1757 30.5683 19.073 30.2478 19.0986 29.9244V18.2751C19.073 17.9517 19.1757 17.6312 19.3846 17.383C19.5934 17.1347 19.8916 16.9786 20.2146 16.9484C20.5376 16.9786 20.8357 17.1347 21.0446 17.383C21.2534 17.6312 21.3561 17.9517 21.3306 18.2751V29.9244C21.3561 30.2478 21.2534 30.5683 21.0446 30.8165C20.8357 31.0648 20.5376 31.2209 20.2146 31.2511Z" fill="#192045"/>
</svg>
