<svg width="30" height="30" viewBox="0 0 30 30" fill="none" xmlns="http://www.w3.org/2000/svg">
<path d="M2 7.5H0V3C0 2.20435 0.31607 1.44129 0.87868 0.87868C1.44129 0.31607 2.20435 0 3 0H7.5V2H2V7.5Z" fill="#192045"/>
<path d="M30 7.5H28V2H22.5V0H27C27.7956 0 28.5587 0.31607 29.1213 0.87868C29.6839 1.44129 30 2.20435 30 3V7.5Z" fill="#192045"/>
<path d="M7.5 30H3C2.20435 30 1.44129 29.6839 0.87868 29.1213C0.31607 28.5587 0 27.7956 0 27V22.5H2V28H7.5V30Z" fill="#192045"/>
<path d="M27 30H22.5V28H28V22.5H30V27C30 27.7956 29.6839 28.5587 29.1213 29.1213C28.5587 29.6839 27.7956 30 27 30Z" fill="#192045"/>
<path d="M9.00052 10.5C8.80311 10.5011 8.60742 10.4633 8.42466 10.3887C8.24191 10.314 8.07568 10.204 7.93552 10.065L6.43552 8.565C6.15307 8.28255 5.99438 7.89946 5.99438 7.5C5.99438 7.10055 6.15307 6.71746 6.43552 6.435C6.71798 6.15255 7.10107 5.99387 7.50052 5.99387C7.89998 5.99387 8.28307 6.15255 8.56552 6.435L10.0655 7.935C10.2061 8.07445 10.3177 8.24035 10.3939 8.42314C10.47 8.60593 10.5092 8.80199 10.5092 9C10.5092 9.19802 10.47 9.39408 10.3939 9.57687C10.3177 9.75966 10.2061 9.92556 10.0655 10.065C9.92536 10.204 9.75914 10.314 9.57638 10.3887C9.39363 10.4633 9.19793 10.5011 9.00052 10.5Z" fill="#192045"/>
<path d="M20.9995 10.5C20.8021 10.5011 20.6064 10.4633 20.4237 10.3887C20.2409 10.314 20.0747 10.204 19.9345 10.065C19.7939 9.92556 19.6824 9.75966 19.6062 9.57687C19.5301 9.39408 19.4908 9.19802 19.4908 9C19.4908 8.80199 19.5301 8.60593 19.6062 8.42314C19.6824 8.24035 19.7939 8.07445 19.9345 7.935L21.4345 6.435C21.717 6.15255 22.1001 5.99387 22.4995 5.99387C22.899 5.99387 23.2821 6.15255 23.5645 6.435C23.847 6.71746 24.0057 7.10055 24.0057 7.5C24.0057 7.89946 23.847 8.28255 23.5645 8.565L22.0645 10.065C21.9244 10.204 21.7582 10.314 21.5754 10.3887C21.3926 10.4633 21.197 10.5011 20.9995 10.5Z" fill="#192045"/>
<path d="M7.49991 24C7.3025 24.0011 7.10681 23.9633 6.92405 23.8887C6.74129 23.814 6.57507 23.704 6.43491 23.565C6.29432 23.4256 6.18272 23.2597 6.10657 23.0769C6.03042 22.8941 5.99121 22.698 5.99121 22.5C5.99121 22.302 6.03042 22.1059 6.10657 21.9231C6.18272 21.7403 6.29432 21.5744 6.43491 21.435L7.93491 19.935C8.21736 19.6525 8.60046 19.4939 8.99991 19.4939C9.39936 19.4939 9.78245 19.6525 10.0649 19.935C10.3474 20.2175 10.506 20.6006 10.506 21C10.506 21.3995 10.3474 21.7825 10.0649 22.065L8.56491 23.565C8.42475 23.704 8.25852 23.814 8.07577 23.8887C7.89301 23.9633 7.69732 24.0011 7.49991 24Z" fill="#192045"/>
<path d="M22.5 24C22.3026 24.0011 22.1069 23.9633 21.9242 23.8887C21.7414 23.814 21.5752 23.704 21.435 23.565L19.935 22.065C19.6526 21.7825 19.4939 21.3995 19.4939 21C19.4939 20.8022 19.5329 20.6064 19.6085 20.4236C19.6842 20.2409 19.7952 20.0749 19.935 19.935C20.0749 19.7951 20.2409 19.6842 20.4237 19.6085C20.6064 19.5328 20.8022 19.4939 21 19.4939C21.3995 19.4939 21.7826 19.6525 22.065 19.935L23.565 21.435C23.7056 21.5744 23.8172 21.7403 23.8934 21.9231C23.9695 22.1059 24.0087 22.302 24.0087 22.5C24.0087 22.698 23.9695 22.8941 23.8934 23.0769C23.8172 23.2597 23.7056 23.4256 23.565 23.565C23.4249 23.704 23.2587 23.814 23.0759 23.8887C22.8931 23.9633 22.6974 24.0011 22.5 24Z" fill="#192045"/>
</svg>
