<svg width="30" height="30" viewBox="0 0 30 30" fill="none" xmlns="http://www.w3.org/2000/svg">
<path d="M15 0C6.72937 0 0 6.72937 0 15C0 23.2706 6.72937 30 15 30C23.2706 30 30 23.2706 30 15C30 6.72937 23.2706 0 15 0ZM16.25 1.30938V2.86625L14.1163 5H13.3837L10.4206 2.03687C11.8538 1.52875 13.3944 1.25 15 1.25C15.4219 1.25 15.8381 1.27188 16.25 1.30938ZM1.25 15C1.25 11.9625 2.24187 9.15312 3.91625 6.875H9.11625L10.625 8.38375V10.9913L8.49125 13.125L10.3663 15L9.11625 16.25H4.7025L6.4525 20.625H11.875V24.1162L8.75 27.2412C4.3025 24.9612 1.25 20.3319 1.25 15ZM15 28.75C13.2238 28.75 11.5269 28.4075 9.96688 27.7919L13.125 24.6338V19.375H7.29813L6.54813 17.5H9.63438L12.1344 15L10.2594 13.125L11.8756 11.5087V7.86625L9.63375 5.625H4.95438C6.14437 4.35063 7.5725 3.3025 9.16813 2.55188L12.8663 6.25H14.6337L17.5 3.38375V1.48188C19.1644 1.78875 20.7256 2.39313 22.1231 3.2425L17.5 7.86625V13.125H20.625V20.2588L24.8969 24.5306C22.3944 27.1287 18.8838 28.75 15 28.75ZM25.7244 23.5906L21.875 19.7412V11.875H18.75V8.38375L23.1787 3.955C26.5569 6.4625 28.75 10.4794 28.75 15C28.75 18.2488 27.615 21.235 25.7244 23.5906Z" fill="#192045"/>
</svg>
