<svg width="26" height="26" viewBox="0 0 26 26" fill="none" xmlns="http://www.w3.org/2000/svg">
<path fill-rule="evenodd" clip-rule="evenodd" d="M9.45455 3.4881C6.04947 4.61889 3.63669 7.33014 3.63653 10.5164V16.7253L0.375499 19.3629C0.144442 19.5409 0 19.7945 0 20.0759V20.2035C0 21.2802 1.05824 22.153 2.36364 22.153H8.30287C8.56913 24.0982 10.5705 25.6098 13 25.6098C15.4295 25.6098 17.4309 24.0982 17.6971 22.153H23.6364C24.9418 22.153 26 21.2802 26 20.2035V20.0761C26.0001 19.7947 25.8557 19.541 25.6245 19.3629L22.3638 16.7256V10.5167C22.3637 7.33036 19.9507 4.61872 16.5455 3.48799V2.43688C16.5455 1.16681 15.3593 0.540947 14.8932 0.348687C14.2864 0.0983808 13.6138 0 13 0C12.3862 0 11.7136 0.0983808 11.1068 0.348687C10.6407 0.540947 9.45455 1.16681 9.45455 2.43688V3.4881ZM14.0955 2.92425C14.0894 2.94107 14.083 2.95765 14.0764 2.97398C13.723 2.94113 13.364 2.92425 13.0001 2.92425C12.6362 2.92425 12.2771 2.94114 11.9237 2.97401C11.917 2.95767 11.9106 2.94108 11.9045 2.92425H11.8182V2.43688C11.8182 2.16773 12.3468 1.9495 13 1.9495C13.6532 1.9495 14.1818 2.16773 14.1818 2.43688V2.92425H14.0955ZM15.3025 22.153H10.6975C10.9403 23.0167 11.879 23.6603 13 23.6603C14.121 23.6603 15.0597 23.0167 15.3025 22.153ZM6.00016 10.5164C6.00035 7.41792 9.11241 4.87375 13.0001 4.87375C16.8879 4.87375 20 7.41792 20.0001 10.5164H6.00016ZM6.00016 10.5164H20.0001V16.7256C20.0001 17.2493 20.2555 17.7509 20.7089 18.1175L23.288 20.2035H2.71208L5.6376 17.8373C5.86065 17.6605 6.00016 17.4119 6.00016 17.1347V10.5164Z" fill="#192045"/>
</svg>
