<svg width="27" height="27" viewBox="0 0 27 27" fill="none" xmlns="http://www.w3.org/2000/svg">
<path d="M19.2967 16.9811H18.0695L17.6449 16.5566C19.1578 14.8045 20.0686 12.5274 20.0686 10.0343C20.0686 4.49228 15.5763 0 10.0343 0C4.49228 0 0 4.49228 0 10.0343C0 15.5763 4.49228 20.0686 10.0343 20.0686C12.5274 20.0686 14.8045 19.1578 16.5566 17.6527L16.9811 18.0772V19.2967L24.6998 27L27 24.6998L19.2967 16.9811ZM10.0343 16.9811C6.19811 16.9811 3.08748 13.8705 3.08748 10.0343C3.08748 6.19811 6.19811 3.08748 10.0343 3.08748C13.8705 3.08748 16.9811 6.19811 16.9811 10.0343C16.9811 13.8705 13.8705 16.9811 10.0343 16.9811Z" fill="#192045"/>
</svg>
