<svg width="32" height="32" viewBox="0 0 32 32" fill="none" xmlns="http://www.w3.org/2000/svg">
<path d="M15.9998 20.6154C18.7551 20.6154 20.9888 18.549 20.9888 16C20.9888 13.451 18.7551 11.3846 15.9998 11.3846C13.2444 11.3846 11.0108 13.451 11.0108 16C11.0108 18.549 13.2444 20.6154 15.9998 20.6154Z" stroke="#192045" stroke-width="1.5" stroke-miterlimit="10" stroke-linecap="round" stroke-linejoin="round"/>
<path d="M30.6649 9.49923L29.4176 7.50077C28.7291 6.39654 27.2037 6.01923 26.0101 6.65615L25.3541 7.00692C22.8596 8.33846 19.7415 6.67346 19.7415 4.00923V3.30769C19.7415 2.03269 18.6252 1 17.247 1H14.7525C13.3743 1 12.258 2.03269 12.258 3.30769V4.00923C12.258 6.67346 9.13986 8.33962 6.64537 7.00692L5.98931 6.65615C4.7957 6.01923 3.27031 6.39654 2.58183 7.50077L1.33459 9.49923C0.646106 10.6035 1.05396 12.0146 2.24757 12.6515L2.90362 13.0023C5.39812 14.335 5.39812 17.665 2.90362 18.9977L2.24757 19.3485C1.05396 19.9854 0.646106 21.3965 1.33459 22.5008L2.58183 24.4992C3.27031 25.6035 4.7957 25.9808 5.98931 25.3438L6.64537 24.9931C9.13986 23.6604 12.258 25.3265 12.258 27.9908V28.6923C12.258 29.9673 13.3743 31 14.7525 31H17.247C18.6252 31 19.7415 29.9673 19.7415 28.6923V27.9908C19.7415 25.3265 22.8596 23.6604 25.3541 24.9931L26.0101 25.3438C27.2037 25.9808 28.7291 25.6035 29.4176 24.4992L30.6649 22.5008C31.3533 21.3965 30.9455 19.9854 29.7519 19.3485L29.0958 18.9977C26.6013 17.665 26.6013 14.335 29.0958 13.0023L29.7519 12.6515C30.9455 12.0146 31.3546 10.6035 30.6649 9.49923Z" stroke="#192045" stroke-width="1.5" stroke-miterlimit="10" stroke-linecap="round" stroke-linejoin="round"/>
</svg>
