<svg width="44" height="44" viewBox="0 0 44 44" fill="none" xmlns="http://www.w3.org/2000/svg">
<rect x="0.5" y="0.5" width="43" height="43" rx="5.5" stroke="#192045"/>
<path fill-rule="evenodd" clip-rule="evenodd" d="M36 15V34C36 35.0609 35.5936 36.0783 34.8703 36.8284C34.1469 37.5786 33.1658 38 32.1429 38H30.2143V36H32.1429C32.6543 36 33.1449 35.7893 33.5066 35.4142C33.8682 35.0391 34.0714 34.5304 34.0714 34V15H30.2143C29.4471 15 28.7112 14.6839 28.1687 14.1213C27.6262 13.5587 27.3214 12.7956 27.3214 12V8H16.7143C16.2028 8 15.7123 8.21071 15.3506 8.58579C14.9889 8.96086 14.7857 9.46957 14.7857 10V28H12.8571V10C12.8571 8.93913 13.2635 7.92172 13.9869 7.17157C14.7102 6.42143 15.6913 6 16.7143 6H27.3214L36 15ZM12.0857 29.7H9V37.698H10.5255V35.014H12.0741C12.6276 35.014 13.0982 34.9 13.4859 34.668C13.8774 34.434 14.1763 34.118 14.3788 33.72C14.589 33.3024 14.6957 32.8371 14.6893 32.366C14.6893 31.866 14.5871 31.414 14.3846 31.012C14.1832 30.6124 13.8752 30.2812 13.4974 30.058C13.1117 29.818 12.6431 29.7 12.0857 29.7ZM13.1368 32.366C13.1437 32.6295 13.0874 32.8907 12.9729 33.126C12.8701 33.3309 12.7101 33.4989 12.5139 33.608C12.2893 33.7232 12.041 33.7795 11.7906 33.772H10.5197V30.96H11.7926C12.213 30.96 12.5428 31.08 12.78 31.322C13.0172 31.566 13.1368 31.914 13.1368 32.366ZM15.4839 29.7V37.698H18.2996C19.0729 37.698 19.7151 37.538 20.2243 37.224C20.7395 36.9043 21.1419 36.4212 21.3718 35.846C21.6225 35.246 21.7498 34.522 21.7498 33.678C21.7498 32.838 21.6244 32.122 21.3718 31.528C21.1446 30.9594 20.7461 30.4824 20.2359 30.168C19.7267 29.856 19.0806 29.7 18.2976 29.7H15.4839ZM17.0094 30.99H18.0951C18.5734 30.99 18.963 31.09 19.2696 31.294C19.5879 31.5099 19.8281 31.8293 19.9524 32.202C20.1047 32.604 20.1799 33.106 20.1799 33.708C20.1859 34.1069 20.1418 34.5049 20.0488 34.892C19.9801 35.1973 19.8514 35.4846 19.6708 35.736C19.503 35.9603 19.2807 36.1342 19.0266 36.24C18.729 36.3555 18.4129 36.4111 18.0951 36.404H17.0094V30.99ZM24.228 34.516V37.698H22.7044V29.7H27.6184V31.006H24.228V33.24H27.3253V34.516H24.228Z" fill="#192045"/>
</svg>
