<svg width="51" height="50" viewBox="0 0 51 50" fill="none" xmlns="http://www.w3.org/2000/svg">
<path d="M15.1741 18.2846H13.4032V27.4932H15.1741V18.2846Z" fill="#192045"/>
<path d="M48.9191 34.0901H48.7212H1.29656H1.09969C0.493173 34.0901 -0.00012207 34.5883 -0.00012207 35.2006C-0.00012207 35.8067 0.493291 36.2998 1.09969 36.2998H19.5405H23.1757H23.1912H26.8313H26.8703H30.5268H48.919C49.5217 36.2998 50.012 35.8067 50.012 35.2006C50.0121 34.5883 49.5218 34.0901 48.9191 34.0901Z" fill="#AF2222"/>
<path d="M19.4448 23.2777H17.674V27.4931H19.4448V23.2777Z" fill="#AF2222"/>
<path d="M10.909 22.2084H9.13235V27.4933H10.909V22.2084Z" fill="#AF2222"/>
<path d="M27.5861 37.0768L36.03 50H38.762L30.318 37.0768H27.5861Z" fill="#AF2222"/>
<path d="M23.7152 20.1364H21.9443V27.4933H23.7152V20.1364Z" fill="#192045"/>
<path d="M36.6085 18.2846H34.8328V27.4932H36.6085V18.2846Z" fill="#AF2222"/>
<path d="M32.338 23.2777H30.5674V27.4931H32.338V23.2777Z" fill="#192045"/>
<path d="M22.7892 43.9488V38.0109L18.9094 43.9488H22.7892Z" fill="#AF2222"/>
<path d="M19.7491 37.0768L11.2998 50H14.0315L22.4753 37.0768H19.7491Z" fill="#AF2222"/>
<path d="M26.4448 37.0768H23.5622V50H26.4448V37.0768Z" fill="#AF2222"/>
<path d="M28.0673 20.1364H26.2965V27.4933H28.0673V20.1364Z" fill="#AF2222"/>
<path d="M26.2588 1.26489C26.2588 0.579266 25.6851 0 25.006 0C24.3268 0 23.7531 0.579266 23.7531 1.26489V3.22416H26.2588V1.26489Z" fill="#AF2222"/>
<path d="M48.3346 33.3132V6.97656H1.68283V33.3133H48.3346V33.3132ZM38.1021 8.93299H45.8101C46.0235 8.93299 46.1965 9.10697 46.1965 9.32146C46.1965 9.53607 46.0234 9.70993 45.8101 9.70993H38.1021C37.8886 9.70993 37.7156 9.53607 37.7156 9.32146C37.7156 9.10697 37.8887 8.93299 38.1021 8.93299ZM38.1021 10.6195H45.8101C46.0235 10.6195 46.1965 10.7935 46.1965 11.008C46.1965 11.2226 46.0234 11.3964 45.8101 11.3964H38.1021C37.8886 11.3964 37.7156 11.2226 37.7156 11.008C37.7156 10.7935 37.8887 10.6195 38.1021 10.6195ZM38.1021 12.8788H45.8101C46.0235 12.8788 46.1965 13.0526 46.1965 13.2672C46.1965 13.4817 46.0234 13.6557 45.8101 13.6557H38.1021C37.8886 13.6557 37.7156 13.4817 37.7156 13.2672C37.7156 13.0526 37.8887 12.8788 38.1021 12.8788ZM38.1021 14.5761H45.8101C46.0235 14.5761 46.1965 14.7499 46.1965 14.9645C46.1965 15.179 46.0234 15.353 45.8101 15.353H38.1021C37.8886 15.353 37.7156 15.179 37.7156 14.9645C37.7156 14.7499 37.8887 14.5761 38.1021 14.5761ZM41.652 21.8199V27.8818C41.652 28.0964 41.4789 28.2701 41.2655 28.2701H38.7161C38.5028 28.2701 38.3298 28.0963 38.3298 27.8818V21.8199C38.3298 21.6053 38.5029 21.4315 38.7161 21.4315H41.2655C41.4789 21.4315 41.652 21.6053 41.652 21.8199ZM34.0602 17.8963C34.0602 17.6818 34.2332 17.5078 34.4465 17.5078H36.9951C37.2086 17.5078 37.3815 17.6818 37.3815 17.8963V27.8819C37.3815 28.0965 37.2084 28.2703 36.9951 28.2703H34.4465C34.2331 28.2703 34.0602 28.0964 34.0602 27.8819V17.8963ZM29.7944 22.8894C29.7944 22.6748 29.9675 22.5009 30.1808 22.5009H32.7244C32.938 22.5009 33.1108 22.6748 33.1108 22.8894V27.8818C33.1108 28.0964 32.9378 28.2701 32.7244 28.2701H30.1808C29.9674 28.2701 29.7944 28.0963 29.7944 27.8818V22.8894ZM25.5237 19.7479C25.5237 19.5334 25.6966 19.3594 25.91 19.3594H28.4537C28.6673 19.3594 28.8401 19.5334 28.8401 19.7479V27.8818C28.8401 28.0964 28.6671 28.2701 28.4537 28.2701H25.91C25.6965 28.2701 25.5237 28.0963 25.5237 27.8818V19.7479ZM21.1712 19.7479C21.1712 19.5334 21.3443 19.3594 21.5577 19.3594H24.1013C24.3148 19.3594 24.4877 19.5334 24.4877 19.7479V27.8818C24.4877 28.0964 24.3148 28.2701 24.1013 28.2701H21.5577C21.3442 28.2701 21.1712 28.0963 21.1712 27.8818V19.7479ZM16.9008 22.8894C16.9008 22.6748 17.0737 22.5009 17.2871 22.5009H19.8307C20.0442 22.5009 20.2171 22.6748 20.2171 22.8894V27.8818C20.2171 28.0964 20.0441 28.2701 19.8307 28.2701H17.2871C17.0736 28.2701 16.9008 28.0963 16.9008 27.8818V22.8894ZM12.6302 17.8963C12.6302 17.6818 12.8032 17.5078 13.0166 17.5078H15.5604C15.7737 17.5078 15.9468 17.6818 15.9468 17.8963V27.8819C15.9468 28.0965 15.7737 28.2703 15.5604 28.2703H13.0166C12.8032 28.2703 12.6302 28.0964 12.6302 27.8819V17.8963ZM8.35957 21.8199C8.35957 21.6053 8.53253 21.4315 8.74601 21.4315H11.2954C11.5089 21.4315 11.6819 21.6053 11.6819 21.8199V27.8818C11.6819 28.0964 11.5089 28.2701 11.2954 28.2701H8.74601C8.53253 28.2701 8.35957 28.0963 8.35957 27.8818V21.8199ZM7.84154 28.9374H25.0058H42.1652C42.3785 28.9374 42.5515 29.1113 42.5515 29.3257C42.5515 29.5405 42.3784 29.7142 42.1652 29.7142H25.0058H7.84154C7.62806 29.7142 7.4551 29.5404 7.4551 29.3257C7.45522 29.1113 7.62806 28.9374 7.84154 28.9374Z" fill="#FF8A8A"/>
<path d="M40.8792 22.2084H39.1025V27.4933H40.8792V22.2084Z" fill="#192045"/>
<path d="M27.2178 43.9488H31.152L27.2178 37.9273V43.9488Z" fill="#AF2222"/>
<path d="M1.09969 6.19961H1.29656H48.7212H48.9191C49.5218 6.19961 50.0121 5.70645 50.0121 5.10042C50.0121 4.50445 49.5114 4.00122 48.9191 4.00122H26.6452H23.3667H1.09969C0.493173 4.00122 -0.000122049 4.49427 -0.000122049 5.10042C-0.000239865 5.70645 0.493173 6.19961 1.09969 6.19961Z" fill="#AF2222"/>
</svg>
