<svg width="48" height="50" viewBox="0 0 48 50" fill="none" xmlns="http://www.w3.org/2000/svg">
<path d="M4.77579 25L0 16.66L4.77579 8.32999H14.3274L19.1131 16.66L14.3274 25H4.77579Z" fill="#AF2222"/>
<path d="M19.1125 16.67L14.3367 8.33L19.1125 0H28.6641L33.4399 8.33L28.6641 16.67H19.1125Z" fill="#192045"/>
<path d="M33.4503 25L28.6646 16.67L33.4503 8.32999H43.0018L47.7776 16.67L43.0018 25H33.4503Z" fill="#FF8A8A"/>
<path d="M4.93527 41.67L0.159485 33.33L4.93527 25H14.4968L19.2726 33.33L14.4968 41.67H4.93527Z" fill="#FF8A8A"/>
<path d="M19.2721 50L14.4963 41.67L19.2721 33.33H28.8236L33.5994 41.67L28.8236 50H19.2721Z" fill="#3B4A9C"/>
<path d="M33.4403 41.67L28.6646 33.33L33.4403 25H42.9919L47.7677 33.33L42.9919 41.67H33.4403Z" fill="#AF2222"/>
</svg>
