<svg width="27" height="27" viewBox="0 0 27 27" fill="none" xmlns="http://www.w3.org/2000/svg">
<path d="M9.65384 19.75H1.72115C1.52989 19.75 1.34646 19.6677 1.21122 19.5212C1.07598 19.3747 1 19.1759 1 18.9687V10.375C1 7.88859 1.91174 5.50403 3.53465 3.74587C5.15756 1.98772 7.3587 1 9.65384 1C11.949 1 14.1501 1.98772 15.773 3.74587C17.3959 5.50403 18.3077 7.88859 18.3077 10.375C18.3077 12.8614 17.3959 15.246 15.773 17.0041C14.1501 18.7623 11.949 19.75 9.65384 19.75Z" stroke="#AF2222" stroke-width="1.44471" stroke-linecap="round" stroke-linejoin="round"/>
<path d="M9.18506 19.75C9.7817 21.5782 10.887 23.161 12.3486 24.2803C13.8102 25.3997 15.5562 26.0005 17.3461 26H25.2788C25.4701 26 25.6535 25.9177 25.7887 25.7712C25.924 25.6247 26 25.426 26 25.2188V16.625C26.0031 14.2255 25.1555 11.9162 23.6324 10.1741C22.1092 8.43191 20.0267 7.38985 17.8149 7.26303" stroke="#AF2222" stroke-width="1.44471" stroke-linecap="round" stroke-linejoin="round"/>
<rect x="5" y="9" width="2" height="2" fill="#AF2222"/>
<rect x="9" y="9" width="2" height="2" fill="#AF2222"/>
<rect x="13" y="9" width="2" height="2" fill="#AF2222"/>
</svg>
