<svg width="27" height="27" viewBox="0 0 27 27" fill="none" xmlns="http://www.w3.org/2000/svg">
<path d="M19.0556 2.76261H23.2222C24.7564 2.76261 26 3.96443 26 5.44695V6.78912M19.0556 24.2374H23.2222C24.7564 24.2374 26 23.0356 26 21.553V20.2108M2.97958 23.4691L11.3129 25.885C13.0951 26.4018 14.8889 25.1121 14.8889 23.3138V3.6861C14.8889 1.88797 13.0951 0.598274 11.3129 1.11497L2.97958 3.53088C1.80464 3.87151 1 4.91658 1 6.10201V20.8979C1 22.0834 1.80464 23.1285 2.97958 23.4691Z" stroke="#AF2222" stroke-width="1.5" stroke-linecap="round" stroke-linejoin="round"/>
<path d="M9.33431 13.5H9.33331" stroke="#AF2222" stroke-width="1.5" stroke-linecap="round" stroke-linejoin="round"/>
<path d="M19.0555 13.5H26M26 13.5L23.2222 10.8156M26 13.5L23.2222 16.1843" stroke="#AF2222" stroke-width="1.5" stroke-linecap="round" stroke-linejoin="round"/>
</svg>
