<svg width="27" height="27" viewBox="0 0 27 27" fill="none" xmlns="http://www.w3.org/2000/svg">
<path d="M3.17391 26L23.8261 26C25.0267 26 26 25.0267 26 23.8261L26 3.17391C26 1.9733 25.0267 1 23.8261 1L3.17391 1C1.9733 1 1 1.9733 1 3.17391L1 23.8261C1 25.0267 1.9733 26 3.17391 26Z" stroke="#AF2222" stroke-width="1.5" stroke-linejoin="round"/>
<path d="M7.43472 11.4131H3.63037V23.3696H7.43472V11.4131Z" stroke="#AF2222" stroke-width="0.8" stroke-linecap="round" stroke-linejoin="round"/>
<path d="M12.739 14.6739H8.93469V23.3695H12.739V14.6739Z" stroke="#AF2222" stroke-width="0.8" stroke-linecap="round" stroke-linejoin="round"/>
<path d="M18.0434 9.78262H14.239V23.3696H18.0434V9.78262Z" stroke="#AF2222" stroke-width="0.8" stroke-linecap="round" stroke-linejoin="round"/>
<path d="M23.3477 11.9565H19.5433V23.3696H23.3477V11.9565Z" stroke="#AF2222" stroke-width="0.8" stroke-linecap="round" stroke-linejoin="round"/>
<path d="M4.26085 8.15215C4.86116 8.15215 5.3478 7.66551 5.3478 7.0652C5.3478 6.46489 4.86116 5.97824 4.26085 5.97824C3.66054 5.97824 3.17389 6.46489 3.17389 7.0652C3.17389 7.66551 3.66054 8.15215 4.26085 8.15215Z" stroke="#AF2222" stroke-width="0.815217" stroke-linecap="round" stroke-linejoin="round"/>
<path d="M10.7826 11.413C11.3829 11.413 11.8696 10.9264 11.8696 10.3261C11.8696 9.72578 11.3829 9.23914 10.7826 9.23914C10.1823 9.23914 9.69568 9.72578 9.69568 10.3261C9.69568 10.9264 10.1823 11.413 10.7826 11.413Z" stroke="#AF2222" stroke-width="0.815217" stroke-linecap="round" stroke-linejoin="round"/>
<path d="M16.7608 6.52175C17.3612 6.52175 17.8478 6.03511 17.8478 5.4348C17.8478 4.83449 17.3612 4.34784 16.7608 4.34784C16.1605 4.34784 15.6739 4.83449 15.6739 5.4348C15.6739 6.03511 16.1605 6.52175 16.7608 6.52175Z" stroke="#AF2222" stroke-width="0.815217" stroke-linecap="round" stroke-linejoin="round"/>
<path d="M22.7392 8.69567C23.3395 8.69567 23.8261 8.20903 23.8261 7.60872C23.8261 7.00841 23.3395 6.52176 22.7392 6.52176C22.1389 6.52176 21.6522 7.00841 21.6522 7.60872C21.6522 8.20903 22.1389 8.69567 22.7392 8.69567Z" stroke="#AF2222" stroke-width="0.815217" stroke-linecap="round" stroke-linejoin="round"/>
<path d="M5.34778 7.60867L9.6956 9.78259" stroke="#AF2222" stroke-width="0.815217" stroke-linecap="round" stroke-linejoin="round"/>
<path d="M11.8696 9.78259L15.674 5.97824" stroke="#AF2222" stroke-width="0.815217" stroke-linecap="round" stroke-linejoin="round"/>
<path d="M17.8478 5.97824L21.6521 7.0652" stroke="#AF2222" stroke-width="0.815217" stroke-linecap="round" stroke-linejoin="round"/>
</svg>
