<svg width="27" height="27" viewBox="0 0 27 27" fill="none" xmlns="http://www.w3.org/2000/svg">
<path d="M13.5 6.20833V8.29166" stroke="#AF2222" stroke-width="1.54688" stroke-linecap="round" stroke-linejoin="round"/>
<path d="M13.5 18.7083V20.7917" stroke="#AF2222" stroke-width="1.54688" stroke-linecap="round" stroke-linejoin="round"/>
<path d="M13.5 26C20.4036 26 26 20.4036 26 13.5C26 6.59644 20.4036 1 13.5 1C6.59644 1 1 6.59644 1 13.5C1 20.4036 6.59644 26 13.5 26Z" stroke="#AF2222" stroke-width="1.5" stroke-linecap="round" stroke-linejoin="round"/>
<path d="M10.375 18.7083H15.0625C15.7531 18.7083 16.4155 18.434 16.9039 17.9456C17.3923 17.4572 17.6666 16.7948 17.6666 16.1042C17.6666 15.4135 17.3923 14.7511 16.9039 14.2627C16.4155 13.7744 15.7531 13.5 15.0625 13.5H11.9375C11.2468 13.5 10.5844 13.2256 10.0961 12.7373C9.60768 12.2489 9.33331 11.5865 9.33331 10.8958C9.33331 10.2052 9.60768 9.54279 10.0961 9.05441C10.5844 8.56604 11.2468 8.29167 11.9375 8.29167H16.625" stroke="#AF2222" stroke-width="1.5" stroke-linecap="round" stroke-linejoin="round"/>
</svg>
