<svg width="27" height="27" viewBox="0 0 27 27" fill="none" xmlns="http://www.w3.org/2000/svg">
<path d="M13.4997 17.3461C15.7958 17.3461 17.6572 15.6242 17.6572 13.5C17.6572 11.3758 15.7958 9.65384 13.4997 9.65384C11.2036 9.65384 9.34222 11.3758 9.34222 13.5C9.34222 15.6242 11.2036 17.3461 13.4997 17.3461Z" stroke="#AF2222" stroke-width="1.5" stroke-miterlimit="10" stroke-linecap="round" stroke-linejoin="round"/>
<path d="M25.7207 8.08269L24.6813 6.41731C24.1076 5.49712 22.8365 5.18269 21.8418 5.71346L21.2951 6.00577C19.2163 7.11538 16.6179 5.72788 16.6179 3.50769V2.92308C16.6179 1.86058 15.6876 1 14.5391 1H12.4604C11.3119 1 10.3817 1.86058 10.3817 2.92308V3.50769C10.3817 5.72788 7.78322 7.11635 5.70447 6.00577L5.15776 5.71346C4.16308 5.18269 2.89193 5.49712 2.3182 6.41731L1.27882 8.08269C0.705088 9.00288 1.04496 10.1788 2.03964 10.7096L2.58635 11.0019C4.6651 12.1125 4.6651 14.8875 2.58635 15.9981L2.03964 16.2904C1.04496 16.8212 0.705088 17.9971 1.27882 18.9173L2.3182 20.5827C2.89193 21.5029 4.16308 21.8173 5.15776 21.2865L5.70447 20.9942C7.78322 19.8837 10.3817 21.2721 10.3817 23.4923V24.0769C10.3817 25.1394 11.3119 26 12.4604 26H14.5391C15.6876 26 16.6179 25.1394 16.6179 24.0769V23.4923C16.6179 21.2721 19.2163 19.8837 21.2951 20.9942L21.8418 21.2865C22.8365 21.8173 24.1076 21.5029 24.6813 20.5827L25.7207 18.9173C26.2944 17.9971 25.9546 16.8212 24.9599 16.2904L24.4132 15.9981C22.3344 14.8875 22.3344 12.1125 24.4132 11.0019L24.9599 10.7096C25.9546 10.1788 26.2955 9.00288 25.7207 8.08269Z" stroke="#AF2222" stroke-width="1.5" stroke-miterlimit="10" stroke-linecap="round" stroke-linejoin="round"/>
</svg>
