<svg width="27" height="27" viewBox="0 0 27 27" fill="none" xmlns="http://www.w3.org/2000/svg">
<path d="M18.9795 26H2.5411C1.68493 26 1 25.3333 1 24.5V2.5C1 1.66667 1.68493 1 2.5411 1H18.9795C19.8356 1 20.5206 1.66667 20.5206 2.5V24.5C20.5206 25.3333 19.8356 26 18.9795 26Z" stroke="#AF2222" stroke-width="1.5" stroke-miterlimit="10" stroke-linecap="round" stroke-linejoin="round"/>
<path d="M4.51025 4.41669H12.1301" stroke="#AF2222" stroke-width="1.5" stroke-miterlimit="10" stroke-linecap="round" stroke-linejoin="round"/>
<path d="M4.51025 7.75H14.6986" stroke="#AF2222" stroke-width="1.5" stroke-miterlimit="10" stroke-linecap="round" stroke-linejoin="round"/>
<path d="M4.51025 11.1667H17.0103" stroke="#AF2222" stroke-width="1.5" stroke-miterlimit="10" stroke-linecap="round" stroke-linejoin="round"/>
<path d="M4.51025 14.5833H17.0103" stroke="#AF2222" stroke-width="1.5" stroke-miterlimit="10" stroke-linecap="round" stroke-linejoin="round"/>
<path d="M26 3.5V22.1667L24.4589 25.3333L22.9178 22.1667V3.5H26Z" stroke="#AF2222" stroke-width="1.5" stroke-miterlimit="10" stroke-linecap="round" stroke-linejoin="round"/>
<path d="M22.9178 3.5V2C22.9178 1.5 23.3459 1 23.9452 1H24.9726C25.572 1 26 1.5 26 2V3.5H22.9178Z" stroke="#AF2222" stroke-width="1.5" stroke-miterlimit="10" stroke-linecap="round" stroke-linejoin="round"/>
<path d="M6.90752 22.5833C8.23149 22.5833 9.30478 21.5387 9.30478 20.25C9.30478 18.9613 8.23149 17.9167 6.90752 17.9167C5.58354 17.9167 4.51025 18.9613 4.51025 20.25C4.51025 21.5387 5.58354 22.5833 6.90752 22.5833Z" stroke="#AF2222" stroke-width="1.5" stroke-miterlimit="10" stroke-linecap="round" stroke-linejoin="round"/>
<path d="M14.6986 22.5833C16.0226 22.5833 17.0959 21.5387 17.0959 20.25C17.0959 18.9613 16.0226 17.9167 14.6986 17.9167C13.3746 17.9167 12.3013 18.9613 12.3013 20.25C12.3013 21.5387 13.3746 22.5833 14.6986 22.5833Z" stroke="#AF2222" stroke-width="1.5" stroke-miterlimit="10" stroke-linecap="round" stroke-linejoin="round"/>
</svg>
