<svg width="32" height="32" viewBox="0 0 32 32" fill="none" xmlns="http://www.w3.org/2000/svg">
<g clip-path="url(#clip0_905_4)">
<path d="M25 22.7634C25.5523 22.7634 26 23.2111 26 23.7634V24C26 24.5523 25.5523 25 25 25H7.10526C6.55298 25 6.10526 24.5523 6.10526 24V23.7634C6.10526 23.2111 6.55298 22.7634 7.10526 22.7634H25ZM9.36855 7.71962C9.76 7.32356 10.3996 7.32356 10.791 7.71962L10.9479 7.87831C11.3329 8.26787 11.3329 8.89466 10.9479 9.28421L8.82045 11.4367C8.43543 11.8263 8.43543 12.4531 8.82045 12.8426L10.9479 14.9951C11.3329 15.3847 11.3329 16.0115 10.9479 16.401L10.791 16.5597C10.3996 16.9558 9.76 16.9558 9.36855 16.5597L5.69476 12.8426C5.30975 12.4531 5.30975 11.8263 5.69476 11.4367L9.36855 7.71962ZM25 14.9354C25.5523 14.9354 26 15.3831 26 15.9354V16.172C26 16.7243 25.5523 17.172 25 17.172H17.0526C16.5003 17.172 16.0526 16.7243 16.0526 16.172V15.9354C16.0526 15.3831 16.5003 14.9354 17.0526 14.9354H25ZM25 7.10736C25.5523 7.10736 26 7.55507 26 8.10736V8.34394C26 8.89622 25.5523 9.34394 25 9.34394H17.0526C16.5003 9.34394 16.0526 8.89622 16.0526 8.34394V8.10736C16.0526 7.55507 16.5003 7.10736 17.0526 7.10736H25Z" fill="#FF8A8A"/>
</g>
<rect x="0.5" y="0.5" width="31" height="31" rx="4.5" stroke="#FF8A8A"/>
<defs>
<clipPath id="clip0_905_4">
<rect width="32" height="32" rx="5" fill="white"/>
</clipPath>
</defs>
</svg>
