<svg width="27" height="27" viewBox="0 0 27 27" fill="none" xmlns="http://www.w3.org/2000/svg">
<path d="M13.5 26C20.4036 26 26 20.4036 26 13.5C26 6.59644 20.4036 1 13.5 1C6.59644 1 1 6.59644 1 13.5C1 20.4036 6.59644 26 13.5 26Z" stroke="#AF2222" stroke-width="1.5" stroke-linecap="round" stroke-linejoin="round"/>
<path d="M13.5 17.6667C16.3765 17.6667 18.7084 15.3348 18.7084 12.4583C18.7084 9.58185 16.3765 7.25 13.5 7.25C10.6235 7.25 8.29169 9.58185 8.29169 12.4583C8.29169 15.3348 10.6235 17.6667 13.5 17.6667Z" stroke="#AF2222" stroke-width="1.5" stroke-linecap="round" stroke-linejoin="round"/>
<path d="M5.14062 22.7969C5.92436 21.2531 7.12026 19.9566 8.59576 19.0509C10.0713 18.1453 11.7687 17.6659 13.5 17.6659C15.2313 17.6659 16.9287 18.1453 18.4042 19.0509C19.8797 19.9566 21.0756 21.2531 21.8594 22.7969" stroke="#AF2222" stroke-width="1.5" stroke-linecap="round" stroke-linejoin="round"/>
</svg>
