<svg width="50" height="50" viewBox="0 0 50 50" fill="none" xmlns="http://www.w3.org/2000/svg">
<rect width="50" height="50" rx="5" fill="#AF2222"/>
<path d="M31.7474 30.2104L33.6363 28.3357C33.9315 28.0428 34.445 28.2478 34.445 28.6696V37.1879C34.445 38.7404 33.1759 40 31.6116 40H10.8334C9.26912 40 8 38.7404 8 37.1879V16.5659C8 15.0134 9.26912 13.7538 10.8334 13.7538H26.9778C27.3969 13.7538 27.6095 14.2577 27.3143 14.5565L25.4254 16.4312C25.3368 16.5191 25.2188 16.5659 25.0889 16.5659H10.8334V37.1879H31.6116V30.5385C31.6116 30.4155 31.6588 30.2983 31.7474 30.2104ZM40.9913 18.3879L25.4903 33.7724L20.1541 34.3582C18.6075 34.5281 17.2912 33.2334 17.4624 31.6868L18.0526 26.3907L33.5537 11.0062C34.9054 9.6646 37.0895 9.6646 38.4354 11.0062L40.9854 13.5371C42.3372 14.8787 42.3372 17.0522 40.9913 18.3879ZM35.1593 20.1982L31.7297 16.7944L20.7621 27.6854L20.3312 31.511L24.1858 31.0833L35.1593 20.1982ZM38.9844 15.529L36.4343 12.9981C36.1923 12.7579 35.7968 12.7579 35.5607 12.9981L33.7367 14.8084L37.1663 18.2122L38.9903 16.4019C39.2264 16.1558 39.2264 15.7692 38.9844 15.529Z" fill="white"/>
</svg>
