<svg width="39" height="38" viewBox="0 0 39 38" fill="none" xmlns="http://www.w3.org/2000/svg">
<rect y="1" width="25" height="3" rx="1.5" fill="#192045"/>
<rect y="11" width="25" height="3" rx="1.5" fill="#192045"/>
<rect y="21" width="25" height="3" rx="1.5" fill="#192045"/>
<path d="M32 1C32 0.447715 31.5523 -2.41411e-08 31 0C30.4477 2.41411e-08 30 0.447715 30 1L32 1ZM30.2929 37.7071C30.6834 38.0976 31.3166 38.0976 31.7071 37.7071L38.0711 31.3431C38.4616 30.9526 38.4616 30.3195 38.0711 29.9289C37.6805 29.5384 37.0474 29.5384 36.6569 29.9289L31 35.5858L25.3431 29.9289C24.9526 29.5384 24.3195 29.5384 23.9289 29.9289C23.5384 30.3195 23.5384 30.9526 23.9289 31.3431L30.2929 37.7071ZM30 1L30 37L32 37L32 1L30 1Z" fill="#192045"/>
</svg>
